<svg width="240" height="60" viewBox="0 0 240 60" fill="none" xmlns="http://www.w3.org/2000/svg">
    <path d="M113.1 60C113.748 60 114.3 59.4627 114.3 58.8V30.9C114.3 30.9 115.8 33.6 118.5 38.1L130.2 58.2C130.735 59.322 131.923 60 132.9 60H141V15H132.9C132.361 15 131.7 15.4482 131.7 16.2V44.4L126.3 34.8L115.5 16.5C114.974 15.5674 113.844 15 112.8 15H105V60H113.1Z" fill="white"/>
    <path d="M217.8 27.6H221.7C222.694 27.6 223.5 26.7941 223.5 25.8V18H231.9V27.6H240V34.8H231.9V47.7C231.9 50.85 233.417 52.2 236.1 52.2H240V60H234.9C227.984 60 223.5 55.5214 223.5 48V34.8H217.8V27.6Z" fill="white"/>
    <path d="M177.3 27.6V46.2C177.3 50.4011 175.723 53.9428 173.4 56.4C171.077 58.8572 167.87 60 163.5 60C159.13 60 155.623 58.8572 153.3 56.4C151.017 53.9428 149.4 50.4011 149.4 46.2V27.6H154.2C155.224 27.6 156.231 27.7866 156.9 28.5C157.569 29.1738 157.8 29.5695 157.8 30.6V46.2C157.8 48.6176 157.937 50.111 159 51.3C160.063 52.4494 161.374 52.8 163.5 52.8C165.665 52.8 166.637 52.4494 167.7 51.3C168.763 50.111 168.9 48.6176 168.9 46.2V30.6C168.9 29.5695 169.131 28.9134 169.8 28.2C170.388 27.5732 171.008 27.588 171.9 27.6C172.023 27.6017 172.376 27.6 172.5 27.6H177.3Z" fill="white"/>
    <path d="M202.8 43.2L213 27.6H205.2C204.217 27.6 203.344 27.9527 202.8 28.8L198 36L193.5 29.1C192.956 28.2527 191.783 27.6 190.8 27.6H183.3L193.5 42.9L182.4 60H190.2C191.175 60 192.055 59.0362 192.6 58.2L198 50.1L203.7 58.5C204.245 59.3362 205.125 60 206.1 60H213.9L202.8 43.2Z" fill="white"/>
    <path d="M50.4 60H83.7C84.7627 60.0001 85.7797 59.6267 86.7 59.1C87.6203 58.5733 88.5689 57.9122 89.1 57C89.6311 56.0878 90.0005 55.0529 90 53.9997C89.9995 52.9465 89.6319 51.912 89.1 51.0002L66.6 12.3C66.0689 11.388 65.4201 10.7266 64.5 10.2C63.5799 9.67343 62.2625 9.3 61.2 9.3C60.1375 9.3 59.1201 9.67343 58.2 10.2C57.2799 10.7266 56.6311 11.388 56.1 12.3L50.4 22.2L39 2.99929C38.4685 2.08735 37.8203 1.12647 36.9 0.6C35.9797 0.0735261 34.9626 0 33.9 0C32.8374 0 31.8203 0.0735261 30.9 0.6C29.9797 1.12647 29.0315 2.08735 28.5 2.99929L0.6 51.0002C0.0680937 51.912 0.000462935 52.9465 5.72978e-07 53.9997C-0.000461789 55.0529 0.0688945 56.0876 0.6 56.9999C1.13111 57.9121 2.07974 58.5733 3 59.1C3.92026 59.6267 4.93733 60.0001 6 60H27C35.321 60 41.3776 56.2673 45.6 49.2L55.8 31.5L61.2 22.2L77.7 50.4H55.8L50.4 60ZM26.7 50.4H12L33.9 12.6L45 31.5L37.6474 44.3175C34.8433 48.903 31.6463 50.4 26.7 50.4Z" fill="#00DC82"/>
</svg>
